<svg width="18" height="16" viewBox="0 0 18 16" fill="none" xmlns="http://www.w3.org/2000/svg">
<path d="M15.8517 5.63334H14.7401C14.7526 5.55834 14.7634 5.48167 14.7634 5.40251V3.47501C14.7634 2.65834 14.0992 1.99417 13.2817 1.99417H1.91675V0.79834C1.91675 0.45334 1.63675 0.17334 1.29175 0.17334C0.946748 0.17334 0.666748 0.45334 0.666748 0.79834V15.3583C0.666748 15.7042 0.946748 15.9833 1.29175 15.9833C1.63675 15.9833 1.91675 15.7042 1.91675 15.3583V14.1633H10.7134C11.5301 14.1633 12.1951 13.4992 12.1951 12.6825V10.755C12.1951 10.6758 12.1834 10.5992 12.1717 10.5233H15.8526C16.6692 10.5233 17.3342 9.85834 17.3342 9.04167V7.11667C17.3342 6.29751 16.6701 5.63334 15.8526 5.63334H15.8517ZM13.2834 3.24417C13.4101 3.24417 13.5142 3.34751 13.5142 3.47501V5.40001C13.5142 5.52834 13.4101 5.63334 13.2826 5.63334H1.91675V3.24167H13.2834V3.24417ZM10.9442 10.7558V12.6825C10.9442 12.81 10.8401 12.9133 10.7126 12.9133H1.91675V10.5233H10.7134C10.8409 10.5233 10.9442 10.6283 10.9442 10.7567V10.7558ZM16.0834 9.04167C16.0834 9.16917 15.9792 9.27251 15.8517 9.27251H1.91675V6.88334H15.8517C15.9792 6.88334 16.0834 6.98667 16.0834 7.11417V9.04167Z" fill="#1D9BF0"/>
</svg>
