<svg width="20" height="20" viewBox="0 0 20 20" fill="none" xmlns="http://www.w3.org/2000/svg">
<path d="M10.0001 18.9583C5.06008 18.9583 1.04175 14.94 1.04175 10C1.04175 5.06001 5.06008 1.04167 10.0001 1.04167C14.9401 1.04167 18.9584 5.06001 18.9584 10C18.9584 14.94 14.9401 18.9583 10.0001 18.9583ZM10.0001 2.29167C5.75008 2.29167 2.29175 5.75001 2.29175 10C2.29175 14.25 5.75008 17.7083 10.0001 17.7083C14.2501 17.7083 17.7084 14.25 17.7084 10C17.7084 5.75001 14.2501 2.29167 10.0001 2.29167Z" fill="#1D9BF0"/>
<path d="M10 14.2625C8.42338 14.2625 6.97255 13.4708 6.12005 12.1425C5.93338 11.8525 6.01755 11.4675 6.30838 11.28C6.59838 11.0917 6.98505 11.1767 7.17171 11.4683C7.79421 12.4367 8.85171 13.0142 10.0009 13.0142C11.15 13.0142 12.2075 12.4367 12.8309 11.4692C13.0175 11.1775 13.4042 11.0942 13.6942 11.2817C13.9859 11.4683 14.0692 11.855 13.8825 12.145C13.0284 13.4733 11.5775 14.2658 10.0009 14.2658L10 14.2625Z" fill="#1D9BF0"/>
<path d="M12.2817 9.11334C12.9619 9.11334 13.5134 8.56191 13.5134 7.88168C13.5134 7.20145 12.9619 6.65001 12.2817 6.65001C11.6015 6.65001 11.05 7.20145 11.05 7.88168C11.05 8.56191 11.6015 9.11334 12.2817 9.11334Z" fill="#1D9BF0"/>
<path d="M7.71848 9.11334C8.39871 9.11334 8.95015 8.56191 8.95015 7.88168C8.95015 7.20145 8.39871 6.65001 7.71848 6.65001C7.03825 6.65001 6.48682 7.20145 6.48682 7.88168C6.48682 8.56191 7.03825 9.11334 7.71848 9.11334Z" fill="#1D9BF0"/>
</svg>
