<svg width="20" height="20" viewBox="0 0 20 20" fill="none" xmlns="http://www.w3.org/2000/svg">
<path d="M15.8335 8.74999V7.33333H12.1668V12.6667H13.5835V11H15.2502V9.58333H13.5835V8.74999H15.8335ZM9.75016 7.33333H11.1668V12.6667H9.75016V7.33333ZM6.75016 8.66666C7.0835 8.66666 7.50016 8.83333 7.75016 9.08333L8.75016 8.24999C8.25016 7.66666 7.50016 7.33333 6.75016 7.33333C5.25016 7.33333 4.0835 8.49999 4.0835 10C4.0835 11.5 5.25016 12.6667 6.75016 12.6667C7.5835 12.6667 8.25016 12.3333 8.75016 11.75V9.66666H6.41683V10.6667H7.41683V11.1667C7.25016 11.25 7.00016 11.3333 6.75016 11.3333C6.00016 11.3333 5.41683 10.75 5.41683 10C5.41683 9.33333 6.00016 8.66666 6.75016 8.66666Z" fill="#1D9BF0"/>
<path d="M17.0834 1.68333H2.91675C1.88341 1.68333 1.04175 2.5225 1.04175 3.55583V16.4783C1.04175 17.51 1.88341 18.35 2.91675 18.35H17.0834C18.1167 18.35 18.9584 17.51 18.9584 16.4783V3.55583C18.9584 2.5225 18.1167 1.68333 17.0834 1.68333ZM17.7084 16.4783C17.7084 16.82 17.4284 17.1 17.0834 17.1H2.91675C2.57175 17.1 2.29175 16.82 2.29175 16.4783V3.55583C2.29175 3.2125 2.57175 2.93333 2.91675 2.93333H17.0834C17.4284 2.93333 17.7084 3.2125 17.7084 3.55583V16.4783Z" fill="#1D9BF0"/>
</svg>
