<svg width="20" height="20" viewBox="0 0 20 20" fill="none" xmlns="http://www.w3.org/2000/svg">
<path d="M10 18.0317H9.98833C7.83583 17.9917 1.625 12.38 1.625 7.065C1.625 4.51167 3.72917 2.27 6.1275 2.27C8.03583 2.27 9.31917 3.58667 9.99917 4.545C10.6775 3.58833 11.9608 2.27 13.87 2.27C16.27 2.27 18.3733 4.51167 18.3733 7.06583C18.3733 12.3792 12.1617 17.9908 10.0092 18.03H10V18.0317ZM6.12833 3.52083C4.395 3.52083 2.87583 5.1775 2.87583 7.06667C2.87583 11.85 8.7375 16.73 10.0008 16.7817C11.2658 16.73 17.1258 11.8508 17.1258 7.06667C17.1258 5.1775 15.6067 3.52083 13.8733 3.52083C11.7667 3.52083 10.59 5.9675 10.58 5.99167C10.3883 6.46 9.61667 6.46 9.42417 5.99167C9.4125 5.96667 8.23667 3.52083 6.12917 3.52083H6.12833Z" fill="#6E767D"/>
</svg>
