<svg width="20" height="20" viewBox="0 0 20 20" fill="none" xmlns="http://www.w3.org/2000/svg">
<path d="M14.6084 6.225L10.4418 2.05833C10.1976 1.81417 9.80176 1.81417 9.55843 2.05833L5.39176 6.225C5.14676 6.46917 5.14676 6.865 5.39176 7.10833C5.63676 7.35167 6.03092 7.35333 6.27509 7.10833L9.37509 4.00833V12.5C9.37509 12.845 9.65509 13.125 10.0001 13.125C10.3451 13.125 10.6251 12.845 10.6251 12.5V4.00833L13.7251 7.10833C13.8468 7.23083 14.0068 7.29167 14.1668 7.29167C14.3268 7.29167 14.4868 7.23167 14.6084 7.10833C14.8526 6.86417 14.8526 6.46917 14.6084 6.225V6.225Z" fill="#6E767D"/>
<path d="M16.4234 18.2867H3.57675C2.52341 18.2867 1.66675 17.43 1.66675 16.3767V11.6667C1.66675 11.3217 1.94675 11.0417 2.29175 11.0417C2.63675 11.0417 2.91675 11.3217 2.91675 11.6667V16.3767C2.91675 16.7408 3.21258 17.0367 3.57675 17.0367H16.4234C16.7876 17.0367 17.0834 16.7408 17.0834 16.3767V11.6667C17.0834 11.3217 17.3634 11.0417 17.7084 11.0417C18.0534 11.0417 18.3334 11.3217 18.3334 11.6667V16.3767C18.3334 17.43 17.4767 18.2867 16.4234 18.2867V18.2867Z" fill="#6E767D"/>
</svg>
