<svg width="20" height="20" viewBox="0 0 20 20" fill="none" xmlns="http://www.w3.org/2000/svg">
<path d="M11.7049 1.86833L8.24825 1.86H8.24658C4.60158 1.86 1.74658 4.71583 1.74658 8.36167C1.74658 11.7767 4.40158 14.3667 7.96742 14.5033V17.6933C7.96742 17.7833 8.00408 17.9317 8.06742 18.0292C8.18575 18.2167 8.38742 18.3183 8.59408 18.3183C8.70908 18.3183 8.82492 18.2867 8.92908 18.22C9.14908 18.08 14.3232 14.77 15.6691 13.6317C17.2541 12.29 18.2024 10.3233 18.2049 8.37167V8.3575C18.1999 4.71833 15.3466 1.86833 11.7049 1.8675V1.86833ZM14.8607 12.6783C13.9157 13.4783 10.8091 15.5158 9.21742 16.5475V13.8917C9.21742 13.5467 8.93825 13.2667 8.59242 13.2667H8.26242C5.21242 13.2667 2.99742 11.2033 2.99742 8.36167C2.99742 5.41667 5.30408 3.11 8.24742 3.11L11.7032 3.11833H11.7049C14.6482 3.11833 16.9549 5.42333 16.9566 8.365C16.9541 9.95667 16.1716 11.5683 14.8616 12.6783H14.8607Z" fill="#6E767D"/>
</svg>
