<svg width="20" height="20" viewBox="0 0 20 20" fill="none" xmlns="http://www.w3.org/2000/svg">
<path d="M19.8083 13.0583C19.5649 12.8142 19.1691 12.8142 18.9249 13.0583L17.0749 14.9083V6.375C17.0749 4.65167 15.6724 3.25 13.9499 3.25H9.07494C8.72994 3.25 8.44994 3.53 8.44994 3.875C8.44994 4.22 8.72994 4.5 9.07494 4.5H13.9499C14.9833 4.5 15.8249 5.34167 15.8249 6.375V14.9083L13.9749 13.0583C13.7308 12.8142 13.3349 12.8142 13.0916 13.0583C12.8483 13.3025 12.8466 13.6983 13.0916 13.9417L16.0083 16.8583C16.1291 16.9808 16.2891 17.0417 16.4499 17.0417C16.6108 17.0417 16.7691 16.9817 16.8916 16.8583L19.8083 13.9417C20.0533 13.6983 20.0533 13.3025 19.8083 13.0583ZM10.9249 15.7917H6.04994C5.0166 15.7917 4.17494 14.95 4.17494 13.9167V5.38333L6.02494 7.23333C6.14827 7.35583 6.30827 7.41667 6.46827 7.41667C6.62827 7.41667 6.78827 7.35583 6.90994 7.23333C7.1541 6.98917 7.1541 6.59333 6.90994 6.35L3.99327 3.43333C3.7491 3.18833 3.35327 3.18833 3.10994 3.43333L0.193271 6.35C-0.0517285 6.59333 -0.0517285 6.98917 0.193271 7.23333C0.438271 7.4775 0.832438 7.4775 1.0766 7.23333L2.9266 5.38333V13.9167C2.9266 15.64 4.3291 17.0417 6.0516 17.0417H10.9266C11.2716 17.0417 11.5516 16.7617 11.5516 16.4167C11.5516 16.0717 11.2708 15.7917 10.9266 15.7917H10.9249Z" fill="#6E767D"/>
</svg>
