<svg width="20" height="20" viewBox="0 0 20 20" fill="none" xmlns="http://www.w3.org/2000/svg">
<path d="M18.9767 8.75501L14.295 6.92834L12.495 1.51168C12.41 1.25584 12.17 1.08334 11.9017 1.08334C11.6333 1.08334 11.3933 1.25584 11.3083 1.51084L9.50833 6.92751L4.825 8.75418C4.58583 8.84751 4.4275 9.07918 4.4275 9.33751C4.4275 9.59584 4.58583 9.82501 4.82583 9.91918L9.50917 11.7458L11.3092 17.1625C11.3942 17.4175 11.6342 17.59 11.9025 17.59C12.1708 17.59 12.4108 17.4175 12.4958 17.1625L14.2958 11.7458L18.9792 9.91918C19.2183 9.82584 19.3767 9.59418 19.3767 9.33584C19.3767 9.07751 19.2183 8.84834 18.9783 8.75501H18.9767ZM13.5683 10.6883C13.395 10.755 13.26 10.8967 13.2017 11.0717L11.9017 14.9842L10.6017 11.0733C10.5433 10.8983 10.41 10.7567 10.2367 10.6883L6.77417 9.33834L10.2358 7.98668C10.4092 7.92001 10.5442 7.77834 10.6025 7.60168L11.9025 3.69084L13.2025 7.60251C13.2608 7.77918 13.3942 7.92084 13.5675 7.98834L17.03 9.33834L13.5675 10.69L13.5683 10.6883ZM5.5525 3.17668H3.98583V1.70834C3.98583 1.36334 3.705 1.08334 3.36083 1.08334C3.01667 1.08334 2.73583 1.36334 2.73583 1.70834V3.17668H1.25C0.905 3.17668 0.625 3.45668 0.625 3.80168C0.625 4.14668 0.905 4.42668 1.25 4.42668H2.735V5.89501C2.735 6.24001 3.015 6.52001 3.36 6.52001C3.705 6.52001 3.985 6.24001 3.985 5.89501V4.42668H5.55167C5.8975 4.42668 6.17667 4.14668 6.17667 3.80168C6.17667 3.45668 5.8975 3.17668 5.55167 3.17668H5.5525ZM7.665 16.195H6.74833V15.3483C6.74833 15.0033 6.46917 14.7233 6.12333 14.7233C5.7775 14.7233 5.49833 15.0033 5.49833 15.3483V16.195H4.64167C4.29667 16.195 4.01667 16.475 4.01667 16.82C4.01667 17.165 4.29667 17.445 4.64167 17.445H5.5V18.2917C5.5 18.6367 5.77917 18.9167 6.125 18.9167C6.47083 18.9167 6.75 18.6367 6.75 18.2917V17.445H7.665C8.01 17.445 8.29 17.165 8.29 16.82C8.29 16.475 8.01 16.195 7.665 16.195Z" fill="#D9D9D9"/>
</svg>
